<?xml version="1.0" encoding="UTF-8"?><svg id="b" xmlns="http://www.w3.org/2000/svg" viewBox="0 0 241.3196 241.2504"><g id="c"><path d="M120.6632,238.4388C55.5803,238.4388,2.8125,185.6789,2.8125,120.5926,2.8125,55.5721,55.5803,2.8154,120.6632,2.8154s117.8498,52.7567,117.8498,117.7772c0,65.0863-52.7641,117.8462-117.8498,117.8462M120.6553,0C54.0283,0,0,54.0193,0,120.5926c0,66.6352,54.0283,120.6578,120.6578,120.6578s120.6618-54.0226,120.6618-120.6578C241.3196,54.0193,187.3009,0,120.6553,0Z" fill="#006dad" fill-rule="evenodd" stroke-width="0"/><path d="M120.6573,236.4607c-63.9865,0-115.869-51.8802-115.869-115.8769C4.7883,56.6441,56.6708,4.7932,120.6573,4.7932s115.8808,51.851,115.8808,115.7907c0,63.9967-51.8746,115.8769-115.8808,115.8769M120.6573,4.0391C56.2555,4.0391,4.0337,56.2269,4.0337,120.5827c0,64.4142,52.2218,116.6309,116.6236,116.6309s116.6357-52.2167,116.6357-116.6309c0-64.3558-52.2147-116.5436-116.6357-116.5436Z" fill="#006dad" fill-rule="evenodd" stroke-width="0"/><path d="M78.1384,214.3984s-.5023.057-.7086-.464c-.038-1.2722,1.4113-1.0897,1.4113-1.0897.9939.1798,1.9514,1.2138-.7027,1.5537M80.3769,217.3053c-.9785-1.1979-1.2206-1.5185-.4765-1.8612.7399-.335,3.3639.0363,2.6448-2.1379-.491-1.0278-2.3072-1.9187-3.3602-1.9811.9388-1.3952,2.2031-2.8656,1.0814-4.3957-1.3252-1.7966-1.4448-.6333-1.8116-.0071-.3609.6299-2.2272,3.6003-2.3423,3.93-.5068.0025-2.8831.0816-3.7352.4697-.8467.3852-1.4723.3897-1.5415-.1599-.0471-.377-.0505-2.5957-1.4343.0403-1.4502,2.8275.3254,4.6678,1.0905,3.3565.7613-1.3218.6256-1.476,1.2849-1.6742.6622-.2021,3.8784-1.0491,2.9917.3419-.7523,1.6974-1.1333,1.5443-1.7623,1.6891-.6262.1483-1.7833.5752-.1993,1.8661-.0983.1601-2.052,3.4693-2.4273,4.1275-.3155.5315-.373,2.5682,1.1673,1.662.2721-.2138.5131-.6449.9065-1.2209,2.3123-3.5669,2.3035-4.8283,3.5762-4.3418,2.5926,1.5086,5.2759,2.0437,4.3472.2967Z" fill="#006dad" fill-rule="evenodd" stroke-width="0"/><path d="M106.9325,216.5238c.2321-1.1951-.2951-2.2481-1.577-.4118,0,0-.2196.6403-.947.4297-.7291-.2188-3.5527-1.3796-2.6294.9309.3129.6647,1.5355.7424,1.9516.8453.4181.1046,1.2821.4569.0009,1.5035-.5298.4272-1.3439,1.3615-2.0747,2.0616-1.3167.9159-1.9012,1.7416-1.1696,2.0917,1.198.2568,2.5569-.5363,4.7832-4.0241,0,0,.8354-1.5803,2.1101-1.3643,1.2393.0967,3.9504-.1275,3.045-1.4397-.5306-.3444-1.4468-.2081-1.8241-.0539-.375.1426-1.5301.1268-1.669-.5689" fill="#006dad" fill-rule="evenodd" stroke-width="0"/><path d="M99.0309,224.0081c.1454-.6582-.1196-3.6447-1.5698-.8078-1.4553,2.8445-1.3944,3.8466-.9426,4.7608.4547.9136,1.6461,1.5468,1.9985-.0346.3634-1.5812.358-3.2565.5139-3.9184" fill="#006dad" fill-rule="evenodd" stroke-width="0"/><path d="M102.5561,225.3608c.1063-.2097.449-.2735.6103-.3668.6264-.3798.5794-.9567-.7762-.9878-1.654.2145-1.5775,1.4201-.8762,1.3529,0,0,.9012.1851.3501.6344-.5581.4587-.4836.9888,1.0596,1.228,0,0,1.5398.5499-.2392.9618,0,0-.9.0578-1.3635.0145-.4694-.0497-1.2339.699-.0363.9646,1.1934.2568,1.8028.1709,1.5469,1.1809-1.1251,3.3973.4586,3.4163.8645,1.7427,0,0,.2934-1.7285.5123-2.3655.2304-.6451.7724-.894,1.2427-.6086,1.415.7719,2.9112-.7336.7682-1.3059,0,0-1.5903-.396-.5015-.5766,1.4139-.1065,2.2672-.7613.9159-1.2325,0,0-1.2081-.371.0779-1.3031.7373-.5113-.341-.3977-.3594-.854-.07-.3181.4836-.296.8629-.3385.3934-.0459,6.4797-.6962,5.0692,2.541-1.268,3.2414-1.9854,4.394-2.4823,5.195-.4899.4695-1.1464,1.5758-1.6657.404-.7537-1.1943-1.4306-.2155-.7361,1.1622.9329,1.1996,1.4919,1.7566,2.7819.5122,1.3031-1.2413,4.0093-6.2991,4.4135-8.7894.2155-.8521-.2347-2.0046-1.7339-2.3405-1.1931-.1506-5.0196-.2365-6.442.1417-1.4205.3747-1.2875.6528-1.0188,1.2095-.0666.8476-.8152,1.7927-1.4905,2.0268-.5419.1984-1.6333.6423-1.3543-.203" fill="#006dad" fill-rule="evenodd" stroke-width="0"/><path d="M134.6315,217.9769c-.0913-.6324-2.0084-3.4039-2.4718-1.4655.3404,1.9581.7733,5.0921.8645,5.6894.0939.597.3059,1.1075-.5757,1.5826-.8807.4765-6.0463,1.635-5.1843,3.0634,1.2935,1.1035,2.3593.2939,2.8542-.027.5015-.3081,2.9682-2.2093,2.6811-.5031-.7575,1.5417-2.2601,3.7139-2.5597,4.2366-.2923.5137-.2948,2.0501,1.6976.6291,1.9817-1.5007,2.6241-4.2418,2.4877-5.1455-.1312-.8716.2251-1.6602,1.0418-1.8587,1.1171-.2693,5.4201-.4093,5.4172-2.6631-.1281-1.0667-.8458-.8841-2.0695-.1931-1.2215.6928-3.9368,1.6141-4.1052.5193-.2171-1.3983-.0779-3.8644-.0779-3.8644" fill="#006dad" fill-rule="evenodd" stroke-width="0"/><path d="M138.3914,227.9577c.6749.6658,3.446,4.1368,4.7474,3.7012,1.2935-.4374,1.385-2.2876-.6449-3.3364-2.0242-1.0576-4.4268-2.3035-4.5924-1.6336-.1746.6769.2461,1.0312.4899,1.2688" fill="#006dad" fill-rule="evenodd" stroke-width="0"/><path d="M23.1196,146.7068l.0406-2.8006c1.5426-.0369,2.7969.2962,3.7624.9995.9661.7024,1.6605,1.7549,2.0821,3.1558.5218,1.7336.358,3.3361-.4907,4.8087-.8479,1.4723-2.3001,2.5166-4.3535,3.1351-2.1722.6539-4.0283.6006-5.5686-.1588-1.539-.7596-2.5847-2.0542-3.1346-3.8826-.4802-1.5956-.3997-3.0362.2446-4.3171.3799-.762,1.0472-1.4477,2.0022-2.0591l1.4085,2.4213c-.6299.3578-1.0675.8408-1.3122,1.4485-.2435.6078-.2605,1.2615-.0504,1.9616.2914.968.8745,1.6478,1.7507,2.0418.8761.3943,2.0914.3572,3.6462-.1117,1.6506-.4969,2.7365-1.1472,3.2587-1.9516.5218-.8042.6395-1.6815.354-2.6312-.2106-.6995-.6145-1.2359-1.2126-1.6069-.5962-.3702-1.406-.5219-2.4274-.4527" fill="#006dad" fill-rule="evenodd" stroke-width="0"/><polygon points="26.1059 137.3649 12.5691 139.0561 11.3156 129.0183 13.6049 128.7326 14.5173 136.0358 17.519 135.6619 16.67 128.8661 18.9504 128.5809 19.7994 135.3767 23.4839 134.9169 22.5394 127.3538 24.8196 127.0687 26.1059 137.3649" fill="#006dad" fill-rule="evenodd" stroke-width="0"/><polygon points="24.5954 121.6451 10.9763 121.0303 11.0968 118.3555 20.4432 113.1916 11.3485 112.7806 11.4639 110.2266 25.0829 110.8414 24.9579 113.6001 15.8295 118.6897 24.7107 119.09 24.5954 121.6451" fill="#006dad" fill-rule="evenodd" stroke-width="0"/><polygon points="26.5595 101.9202 15.4752 99.5513 14.629 103.5113 12.3718 103.0275 14.6378 92.4259 16.895 92.9078 16.05 96.857 27.1355 99.2259 26.5595 101.9202" fill="#006dad" fill-rule="evenodd" stroke-width="0"/><path d="M23.0689,85.1865l.7469-1.895c.4848-1.2274.7353-2.0151.7521-2.3621.017-.3464-.0681-.6571-.254-.93-.1851-.2733-.4677-.4845-.849-.6344-.4266-.1687-.8158-.1902-1.1684-.0658-.3524.1242-.6449.3801-.8779.7685-.1109.1958-.3702.8141-.7804,1.8513l-.7878,1.9995,3.2185,1.268ZM29.3785,90.6347l-12.6836-5.0012,2.1254-5.3904c.5349-1.3552,1.0375-2.2955,1.5069-2.8199.4697-.5247,1.0693-.8563,1.7966-.9966.7291-.1392,1.4681-.0615,2.2173.2344.9516.3756,1.6276.9655,2.027,1.7688.3997.8048.4601,1.7958.1826,2.9721.5411-.426,1.0763-.7435,1.6053-.9518.5281-.2087,1.4059-.4241,2.6336-.646l3.085-.5735-1.2076,3.0628-3.4903.7631c-1.2458.2688-2.0438.4737-2.3964.6151-.3518.1415-.629.3286-.8311.5616-.2018.233-.419.6443-.6511,1.2322l-.2047.5199,5.2943,2.0871-1.0092,2.5623Z" fill="#006dad" fill-rule="evenodd" stroke-width="0"/><path d="M35.1938,66.2133l-5.3005-1.0459,3.3523,4.2193,1.9482-3.1734ZM42.4494,64.713l-1.5681,2.5551-3.2656-.606-2.8533,4.6505,2.0534,2.5812-1.5293,2.4917-8.8517-11.67,1.5236-2.4834,14.491,2.4809Z" fill="#006dad" fill-rule="evenodd" stroke-width="0"/><polygon points="45.3226 61.1286 35.1 52.2766 36.9017 50.1959 45.3881 57.5433 49.8691 52.3698 51.6061 53.8734 45.3226 61.1286" fill="#006dad" fill-rule="evenodd" stroke-width="0"/><path d="M65.2113,36.7903l2.1835-1.5749c.5927.6967,1.2084,1.1015,1.8474,1.218.6386.1162,1.3198-.0368,2.0437-.4586.7662-.4479,1.2481-.946,1.4485-1.4973.1993-.5502.173-1.0423-.0807-1.4771-.163-.2784-.3827-.4686-.6599-.5684-.2781-.1012-.6628-.1037-1.1535-.0116-.3347.066-1.0703.2645-2.205.5964-1.461.4272-2.5824.5616-3.3659.4011-1.101-.227-1.925-.8067-2.4681-1.7393-.3495-.6004-.5074-1.2612-.472-1.9814.0363-.7223.2948-1.4062.7753-2.0532.4819-.6463,1.1755-1.2336,2.0809-1.7617,1.4786-.8623,2.7819-1.1872,3.907-.9754,1.1259.2132,2.0231.8501,2.6921,1.9103l-2.3182,1.4921c-.4555-.5465-.9278-.8549-1.4176-.9241-.4901-.0708-1.0693.0904-1.7391.4808-.6919.4028-1.15.8606-1.3756,1.3731-.1454.3288-.1296.6471.0484.9516.163.2789.4193.4493.7708.5094.4473.0773,1.3289-.0851,2.6464-.4865,1.3173-.4022,2.338-.6188,3.0634-.6497.7245-.0317,1.3915.1137,2.0004.4371.6095.3237,1.1305.8584,1.5653,1.6033.3935.6752.5749,1.4173.544,2.2255-.0318.809-.3073,1.5565-.8258,2.2436-.519.6863-1.2909,1.3286-2.3139,1.9244-1.4899.8694-2.8349,1.1917-4.0354.9686-1.2002-.2228-2.2615-.9479-3.1864-2.1761" fill="#006dad" fill-rule="evenodd" stroke-width="0"/><path d="M81.6715,25.5107c.5304,1.4493,1.2677,2.4244,2.2102,2.9267.9436.5026,1.9304.5656,2.9599.1868,1.0304-.3764,1.7391-1.0573,2.1283-2.0412.3878-.9833.3098-2.217-.233-3.7009-.538-1.4672-1.2609-2.4423-2.1682-2.9282-.9069-.4856-1.893-.5329-2.958-.144-1.065.3912-1.7884,1.0704-2.1733,2.0395-.3833.9695-.3053,2.1898.2341,3.6613M79.041,26.5737c-.4774-1.3031-.6829-2.4687-.6174-3.4957.0521-.7577.235-1.4885.5476-2.1909.3135-.7024.7246-1.2881,1.2314-1.7581.6732-.6298,1.531-1.135,2.5727-1.5165,1.8854-.6911,3.6074-.6602,5.1684.0941,1.5602.7552,2.7216,2.174,3.4852,4.2574.7566,2.065.7878,3.8863.093,5.4651-.6953,1.5783-1.9825,2.7119-3.8616,3.401-1.9029.697-3.6289.6712-5.1772-.078-1.5477-.7491-2.6949-2.1421-3.4421-4.1785Z" fill="#006dad" fill-rule="evenodd" stroke-width="0"/><path d="M96.5211,13.6567l2.7136-.4691,1.258,7.2797c.1993,1.1554.3631,1.8983.4893,2.2283.2114.5303.5641.9244,1.0584,1.182.4944.2577,1.1209.3201,1.8791.1891.7696-.1329,1.3235-.3898,1.6603-.7727.3364-.3821.5057-.8093.5057-1.2816,0-.4725-.0922-1.2404-.2756-2.304l-1.2852-7.435,2.7142-.4688,1.22,7.0594c.2781,1.6138.402,2.7669.3714,3.458-.0321.6913-.2058,1.3008-.5205,1.8272-.3152.5269-.7792.9828-1.3924,1.3686-.6131.3863-1.451.6712-2.514.8555-1.2838.2213-2.283.2415-2.9974.0591-.7149-.1805-1.3047-.4756-1.7716-.8821-.4669-.4082-.8073-.8609-1.0188-1.3593-.3101-.7397-.5953-1.8615-.8552-3.3653l-1.2393-7.1691Z" fill="#006dad" fill-rule="evenodd" stroke-width="0"/><polygon points="118.5573 24.7524 118.4576 13.4274 114.4122 13.4626 114.3918 11.1574 125.225 11.0622 125.2451 13.3685 121.21 13.4033 121.3089 24.7283 118.5573 24.7524" fill="#006dad" fill-rule="evenodd" stroke-width="0"/><polygon points="130.1913 25.0455 132.3156 11.5662 135.0374 11.9959 134.2009 17.3001 139.5343 18.142 140.3705 12.8358 143.0912 13.2656 140.9666 26.7446 138.2451 26.3157 139.1743 20.4225 133.8412 19.5806 132.912 25.4738 130.1913 25.0455" fill="#006dad" fill-rule="evenodd" stroke-width="0"/><path d="M168.8933,22.1547l2.408,1.3354-3.5827,6.4576c-.5689,1.0242-.9074,1.7056-1.0162,2.0413-.1673.5448-.1389,1.0726.0842,1.584.2242.5099.6726.9514,1.3447,1.3246.6832.3784,1.2751.5253,1.7771.4382.5014-.0864.9005-.3138,1.197-.6814.296-.3674.7064-1.0228,1.2297-1.9661l3.6578-6.5952,2.4081,1.3345-3.4736,6.2626c-.7946,1.4312-1.421,2.4061-1.8791,2.9257-.4581.5184-.9734.8841-1.5497,1.097-.5746.2126-1.2223.2769-1.9417.1941-.7203-.0844-1.5514-.3875-2.4948-.9109-1.1384-.6313-1.9287-1.2424-2.3706-1.8312-.4428-.5899-.7186-1.1888-.8266-1.7989-.108-.6094-.0887-1.1744.0584-1.6959.2217-.7699.7024-1.8224,1.4423-3.1556l3.5277-6.3598Z" fill="#006dad" fill-rule="evenodd" stroke-width="0"/><polygon points="176.7682 42.7022 185.3518 32.1058 187.433 33.7918 186.0384 44.3812 191.7703 37.3051 193.7585 38.9151 185.1746 49.5116 183.0282 47.7723 184.3534 37.4026 178.7561 44.3129 176.7682 42.7022" fill="#006dad" fill-rule="evenodd" stroke-width="0"/><rect x="188.3935" y="48.6279" width="13.6315" height="2.7518" transform="translate(19.2072 148.138) rotate(-43.5106)" fill="#006dad" stroke-width="0"/><polygon points="197.0813 62.6992 205.1821 50.6965 206.9507 53.1028 200.8624 61.8593 210.9716 58.5734 212.701 60.9276 198.8223 65.0673 197.0813 62.6992" fill="#006dad" fill-rule="evenodd" stroke-width="0"/><polygon points="203.9658 72.8813 216.1278 66.7287 220.6902 75.746 218.6322 76.7863 215.3126 70.2249 212.6166 71.5887 215.7052 77.6939 213.6557 78.7306 210.5677 72.625 207.2579 74.2995 210.6952 81.0933 208.6452 82.1302 203.9658 72.8813" fill="#006dad" fill-rule="evenodd" stroke-width="0"/><path d="M219.0095,87.4828l.5981,1.9486c.3861,1.2625.6821,2.035.885,2.3176.2027.2809.4624.4711.7778.5677.3155.0987.6687.0871,1.0605-.0326.4385-.1337.7566-.3597.955-.6769.1984-.3172.2676-.6998.2083-1.1491-.0365-.2214-.218-.8671-.5442-1.935l-.6307-2.0551-3.3098,1.0148ZM210.6757,87.1554l13.0425-3.998,1.6993,5.5432c.4269,1.3944.62,2.4423.58,3.1467-.0417.7025-.3027,1.3368-.7846,1.8995-.4831.5636-1.1104.9638-1.8811,1.1994-.9788.3004-1.8754.2605-2.6895-.1197-.8141-.3798-1.4794-1.1162-1.9959-2.2101-.1576.6715-.3784,1.2526-.6619,1.7461-.2834.4907-.8362,1.2073-1.6585,2.1475l-2.056,2.3724-.9658-3.1502,2.2547-2.774c.807-.987,1.3048-1.6461,1.4919-1.9746.1879-.3305.288-.6503.3002-.9584.0127-.3084-.0743-.7665-.2594-1.3714l-.1641-.5335-5.4445,1.6691-.8073-2.634Z" fill="#006dad" fill-rule="evenodd" stroke-width="0"/><path d="M219.3888,102.0949l.6041,2.624c-.8708.2752-1.484.6848-1.8383,1.2285-.3552.5431-.4782,1.2297-.3702,2.0608.1142.8799.3864,1.5177.8167,1.9154.4297.3968.8949.5644,1.3926.4989.3201-.0408.5794-.171.7807-.3872.1993-.2172.3518-.5698.4572-1.0596.0689-.3334.1709-1.088.3064-2.2626.1718-1.5115.4845-2.5969.9363-3.2559.6361-.9275,1.4902-1.461,2.5603-1.5999.6894-.0904,1.3589.0213,2.0095.3348.6502.3118,1.18.8158,1.5891,1.5097.4093.6945.6823,1.5619.8169,2.6.2205,1.6985.015,3.0245-.6177,3.9798-.6332.955-1.567,1.5344-2.8037,1.7388l-.4757-2.7153c.6803-.2064,1.1464-.5236,1.4015-.9471.2542-.4232.3313-1.0196.231-1.7895-.1026-.7929-.3464-1.3935-.7308-1.7994-.2463-.262-.5456-.3711-.8954-.3249-.3201.0417-.5769.2126-.7691.5131-.2446.3827-.4368,1.258-.5774,2.6266-.1412,1.3685-.3379,2.3944-.5902,3.075-.2525.6803-.6457,1.2376-1.18,1.6733-.5352.4351-1.23.7081-2.0846.8203-.7753.1004-1.529-.021-2.2618-.3631-.7325-.343-1.3147-.8858-1.7461-1.6299-.4306-.7452-.7229-1.7056-.8762-2.8794-.2214-1.7099.0017-3.0751.6732-4.0936.6707-1.0207,1.7515-1.7163,3.2417-2.0916" fill="#006dad" fill-rule="evenodd" stroke-width="0"/><rect x="216.5263" y="118.9351" width="13.6396" height="2.7543" transform="translate(-.5305 .9901) rotate(-.2537)" fill="#006dad" stroke-width="0"/><polygon points="216.0434 130.4192 227.2929 131.7314 227.7618 127.7135 230.0527 127.9811 228.7973 138.7406 226.5069 138.4733 226.9749 134.4651 215.7245 133.1532 216.0434 130.4192" fill="#006dad" fill-rule="evenodd" stroke-width="0"/><polygon points="213.3006 145.3584 218.8244 146.9222 227.787 144.2667 226.9077 147.3738 220.8399 148.9924 225.1755 153.4893 224.3109 156.5413 218.0591 149.5584 212.5528 147.9983 213.3006 145.3584" fill="#006dad" fill-rule="evenodd" stroke-width="0"/><path d="M120.6578,212.4584c-50.7274,0-91.8604-41.1293-91.8604-91.8658,0-50.6911,41.133-91.7983,91.8604-91.7983s91.8715,41.1072,91.8715,91.7983c0,50.7365-41.1271,91.8658-91.8715,91.8658M120.6578,27.466c-51.4599,0-93.1892,41.701-93.1892,93.1258,0,51.4706,41.7293,93.1955,93.1892,93.1955s93.2-41.7249,93.2-93.1955c0-51.4248-41.7228-93.1258-93.2-93.1258Z" fill="#006dad" fill-rule="evenodd" stroke-width="0"/><path d="M160.8882,216.3146c.6208-.271.9134-1.3393-.0345-3.3715-.2515-.5386-1.7008-1.5293-1.6283.0797.2861,1.3714.4553,1.4706.5891,2.1829,0,0,.4422,1.3836,1.0737,1.1089" fill="#006dad" fill-rule="evenodd" stroke-width="0"/><path d="M157.3906,218.939c-.466,2.0108.2789,3.8091,1.2163,3.5257.9428-.2781.8674-1.7184.3643-3.0688-.2172-.5879-1.1092-2.4715-1.5806-.4569" fill="#006dad" fill-rule="evenodd" stroke-width="0"/><path d="M166.3109,213.4412c-.7877.7846-.6607-.4077-.5057-.7319.1551-.3206.0913-.9942-.5094-1.0262-.5947-.0227-.3129-.7404.1851-1.6883.4873-.9533.8459-.0301.7546.3169-.2993,1.1041-.0317,1.1341.8087,1.2404.654.1188.0621,1.0988-.7333,1.8891M164.8361,212.881c.1493.7441-.5494,1.6195-.9137,1.3556-.3665-.2818-.7449-1.4868-1.0842-3.0796-.1826-1.4902,1.5823-1.1146,1.3147-.2177-.0213.2443-.3589.7707-.2279,1.146.1341.383.7549.0482.9111.7957ZM171.4927,210.094c-.91-.5601-1.8854.4535-2.035.8025-.1446.3563-1.4247,1.1888-1.304-.8858.0105-1.5007,1.5421-2.9892.466-3.9266-1.0715-.9263-2.5843.025-2.7377.9587-.1522.9286.3861.5973,1.1121.5281.316-.0831.4065.9017.3135,1.6299-.0887.7228-.364.7835-.5332-.0938-.182-.87-1.3125-.5916-1.789-.1843-.4631.404-.9371-.216-.5252-1.095.233-1.04-1.8046-2.7269-2.3431-1.4389,0,0-.1208.8686.8895.9998.7095.2568-.5006,2.9781-1.2101,2.0305-.2438-.328-1.8324-2.4596-1.2538-.0675.5732,2.3885,1.9037,5.3986,2.0004,5.6857.1043.2835.1125.6308-.1312.8451-.2381.225-4.5873,2.6084-2.3936,2.906,1.156-.14,1.8799-.739,2.4097-1.4334.5216-.6982,4.9142-3.3931,5.5219-4.0026.6024-.6219,2.3006-1.43,1.7754-.3438-.5298.3951.2063,1.4332,1.9737-.2356.5865-.5247,1.1463-1.9012-.2063-2.679Z" fill="#006dad" fill-rule="evenodd" stroke-width="0"/><path d="M168.1183,221.9828s-.0454.4697-.7787.6701c-1.4947.2109-1.2322-.6327-.032-1.6977,1.2047-1.0683,1.0168.6078.8107,1.0276M168.539,218.3029c-.9188.4322-1.1214.0229-.0939-1.3272,1.2535-1.7541.4847-2.4236-1.082-1.4704-.7095.3348-.8909.425-1.7591,1.1427-.5519.4555-.9108.5757-1.9095,1.8374-1.489,2.1617,1.4089,1.3144,1.6606.434.8113-1.7348,1.6469.0354,1.4111.5689-.1177.4411-1.3686.9921-2.2706,2.9146-.9,1.9154,1.4672,2.3068,4.1451,1.1659,1.2263-.5757,1.6365-2.454,1.2592-3.0725-.3785-.6182-.614-1.3572.1335-1.6778,2.5736-.879.0612-1.7895-1.4944-.5156Z" fill="#006dad" fill-rule="evenodd" stroke-width="0"/><path d="M172.4856,152.9427l-36.4002-36.3988,5.0459-5.0454,25.4401,25.4339,2.9299-2.8846,6.5308-6.531c6.0429-6.0418-2.5852-14.927-2.5852-14.927l-16.8599-16.8559,10.942-10.9375,25.0962,25.0764s11.2989,11.5711,3.7678,19.09l-23.9074,23.9799ZM130.8078,193.9303c-9.9459,9.9595-21.524-.5403-21.524-.5403l-25.4747-26.1059,31.0142-30.7273,5.1037,5.1046-20.0296,20.0288,12.6278,12.5889s7.6465,9.254,15.6399,1.2526l18.1046-18.1046-72.8416-72.7477,36.4652-36.4468c9.9884-9.9921,21.5322.4669,21.5322.4669l30.9679,30.8781-31.7514,31.7511-4.9893-4.9887,20.7604-20.7587-18.0283-18.0175s-7.8829-8.9635-15.9058-.9406l-18.3674,18.3521,72.8337,72.8116-36.1375,36.1434ZM47.4494,132.2453c-9.972-9.9632.8932-22.4326.8932-22.4326l20.0446-19.9162,22.396,22.396-5.0479,5.0471-11.5285-11.5265-6.5461,6.5386s-9.2146,8.6545-1.203,16.6507l11.8012,11.7998,20.0341-20.0296,10.967,10.9542-31.1675,31.1576-30.6431-30.6391ZM120.6578,30.1884c-49.9566,0-90.466,40.4824-90.466,90.4042,0,49.9658,40.5094,90.4714,90.466,90.4714s90.4768-40.5056,90.4768-90.4714c0-49.9218-40.504-90.4042-90.4768-90.4042Z" fill="#006dad" fill-rule="evenodd" stroke-width="0"/><line x1="65.1775" y1="194.6905" x2="51.0756" y2="213.635" fill="none" stroke="#006dad" stroke-miterlimit="22.9256" stroke-width=".27"/><line x1="61.7003" y1="191.969" x2="46.5388" y2="210.0424" fill="none" stroke="#006dad" stroke-miterlimit="22.9256" stroke-width=".27"/><line x1="58.5251" y1="188.9444" x2="42.1003" y2="206.1499" fill="none" stroke="#006dad" stroke-miterlimit="22.9256" stroke-width=".27"/><line x1="55.1233" y1="185.8456" x2="37.8071" y2="201.9815" fill="none" stroke="#006dad" stroke-miterlimit="22.9256" stroke-width=".27"/><line x1="52.0235" y1="182.6705" x2="33.707" y2="197.5714" fill="none" stroke="#006dad" stroke-miterlimit="22.9256" stroke-width=".27"/><line x1="48.9237" y1="179.1921" x2="29.8411" y2="192.9606" fill="none" stroke="#006dad" stroke-miterlimit="22.9256" stroke-width=".27"/><line x1="46.2022" y1="175.7151" x2="26.2426" y2="188.1933" fill="none" stroke="#006dad" stroke-miterlimit="22.9256" stroke-width=".27"/><line x1="43.4052" y1="172.0862" x2="22.9379" y2="183.3162" fill="none" stroke="#006dad" stroke-miterlimit="22.9256" stroke-width=".27"/><line x1="41.3642" y1="168.0041" x2="19.9462" y2="178.3774" fill="none" stroke="#006dad" stroke-miterlimit="22.9256" stroke-width=".27"/><path d="M17.268,173.4259l21.9796-9.0505-21.9796,9.0505Z" fill="none" stroke="#006dad" stroke-miterlimit="22.9256" stroke-width=".27"/><line x1="175.6645" y1="194.6905" x2="189.7664" y2="213.635" fill="none" stroke="#006dad" stroke-miterlimit="22.9256" stroke-width=".27"/><line x1="179.1416" y1="191.969" x2="194.303" y2="210.0424" fill="none" stroke="#006dad" stroke-miterlimit="22.9256" stroke-width=".27"/><line x1="182.3167" y1="188.9444" x2="198.7415" y2="206.1499" fill="none" stroke="#006dad" stroke-miterlimit="22.9256" stroke-width=".27"/><line x1="185.7186" y1="185.8456" x2="203.0346" y2="201.9815" fill="none" stroke="#006dad" stroke-miterlimit="22.9256" stroke-width=".27"/><line x1="188.8185" y1="182.6705" x2="207.1347" y2="197.5714" fill="none" stroke="#006dad" stroke-miterlimit="22.9256" stroke-width=".27"/><line x1="191.9182" y1="179.1921" x2="211.0012" y2="192.9606" fill="none" stroke="#006dad" stroke-miterlimit="22.9256" stroke-width=".27"/><line x1="194.6398" y1="175.7151" x2="214.5996" y2="188.1933" fill="none" stroke="#006dad" stroke-miterlimit="22.9256" stroke-width=".27"/><line x1="197.4367" y1="172.0862" x2="217.9041" y2="183.3162" fill="none" stroke="#006dad" stroke-miterlimit="22.9256" stroke-width=".27"/><line x1="199.4778" y1="168.0041" x2="220.8957" y2="178.3774" fill="none" stroke="#006dad" stroke-miterlimit="22.9256" stroke-width=".27"/><path d="M223.5739,173.4259l-21.9796-9.0505,21.9796,9.0505Z" fill="none" stroke="#006dad" stroke-miterlimit="22.9256" stroke-width=".27"/></g></svg>